<svg width="16" height="16" viewBox="0 0 16 16" fill="none" xmlns="http://www.w3.org/2000/svg">
<path d="M9.90555 4.98442L9.90551 4.98432L8.2825 1.12921C8.17927 0.884014 7.82077 0.884016 7.71754 1.1292L6.09449 4.98432C5.9051 5.43417 5.47895 5.73769 4.99417 5.77608L0.781312 6.10975C0.501884 6.13188 0.410561 6.46145 0.60544 6.62637C0.605441 6.62637 0.605443 6.62637 0.605444 6.62637L3.8152 9.34259L3.81524 9.34263C4.18759 9.65779 4.35237 10.1548 4.23758 10.6302C4.23758 10.6302 4.23758 10.6302 4.23758 10.6302L3.25695 14.6915C3.19903 14.9314 3.46982 15.1574 3.71527 15.0093L9.90555 4.98442ZM9.90555 4.98442C10.095 5.43417 10.5211 5.73769 11.0059 5.77608L15.2187 6.10975C15.4981 6.13188 15.5894 6.46145 15.3946 6.62638L12.1849 9.3426L12.1848 9.34263C11.8125 9.65775 11.6476 10.1548 11.7624 10.6302L12.7431 14.6915C12.801 14.9314 12.5302 15.1574 12.2848 15.0093C12.2847 15.0093 12.2847 15.0093 12.2847 15.0093L8.67798 12.8329L9.90555 4.98442ZM7.32206 12.8329L3.7153 15.0093L8.67797 12.8329C8.26148 12.5816 7.73857 12.5815 7.32207 12.8329C7.32207 12.8329 7.32206 12.8329 7.32206 12.8329Z" stroke="#FA8F21"/>
</svg>
